<svg width="22" height="13" viewBox="0 0 22 13" fill="none" xmlns="http://www.w3.org/2000/svg">
<path fill-rule="evenodd" clip-rule="evenodd" d="M11 6.41431C9.67392 6.41431 8.40215 6.94109 7.46447 7.87877C6.52678 8.81645 6 10.0882 6 11.4143V12.4143H16V11.4143C16 10.0882 15.4732 8.81645 14.5355 7.87877C13.5979 6.94109 12.3261 6.41431 11 6.41431Z" fill="black"/>
<path opacity="0.4" fill-rule="evenodd" clip-rule="evenodd" d="M3.22295 3.63713C3.61347 3.24661 4.24664 3.24661 4.63716 3.63713L6.04716 5.04713C6.43769 5.43766 6.43769 6.07082 6.04716 6.46134C5.65664 6.85187 5.02347 6.85187 4.63295 6.46134L3.22295 5.05135C2.83242 4.66082 2.83242 4.02766 3.22295 3.63713Z" fill="black"/>
<path opacity="0.6" fill-rule="evenodd" clip-rule="evenodd" d="M10.9971 0.414214C11.5494 0.414213 11.9971 0.861929 11.9971 1.41421L11.9971 3.40825C11.9971 3.96054 11.5494 4.40825 10.9971 4.40825C10.4448 4.40825 9.99707 3.96054 9.99707 3.40825L9.99707 1.41421C9.99707 0.861929 10.4448 0.414214 10.9971 0.414214Z" fill="black"/>
<path opacity="0.2" fill-rule="evenodd" clip-rule="evenodd" d="M0 11.4143C0 10.862 0.447715 10.4143 1 10.4143H3C3.55228 10.4143 4 10.862 4 11.4143C4 11.9666 3.55228 12.4143 3 12.4143H1C0.447715 12.4143 0 11.9666 0 11.4143Z" fill="black"/>
<path fill-rule="evenodd" clip-rule="evenodd" d="M18 11.4143C18 10.862 18.4477 10.4143 19 10.4143H21C21.5523 10.4143 22 10.862 22 11.4143C22 11.9666 21.5523 12.4143 21 12.4143H19C18.4477 12.4143 18 11.9666 18 11.4143Z" fill="black"/>
<path opacity="0.8" fill-rule="evenodd" clip-rule="evenodd" d="M18.7771 3.63713C19.1677 4.02766 19.1677 4.66082 18.7771 5.05135L17.3671 6.46134C16.9766 6.85187 16.3435 6.85187 15.9529 6.46134C15.5624 6.07082 15.5624 5.43766 15.9529 5.04713L17.3629 3.63713C17.7535 3.24661 18.3866 3.24661 18.7771 3.63713Z" fill="black"/>
</svg>
